<svg viewBox="0 0 14 14" fill="none" xmlns="http://www.w3.org/2000/svg">
<path d="M6.50422 0.0666504C5.04305 0.0666504 3.79176 0.981988 3.28755 2.26769C2.23276 2.40858 1.29029 3.02381 0.74797 3.96353C0.0175574 5.22876 0.183979 6.76949 1.04485 7.84894C0.639809 8.83257 0.700929 9.95661 1.24276 10.8958C1.97348 12.1616 3.39255 12.7878 4.75839 12.5812C5.40774 13.4241 6.41121 13.9333 7.49589 13.9333C8.95706 13.9333 10.2083 13.018 10.7126 11.7323C11.7673 11.5914 12.7098 10.9762 13.2521 10.0364C13.9826 8.77121 13.8161 7.23048 12.9553 6.15103C13.3603 5.1674 13.2992 4.04336 12.7573 3.10415C12.0266 1.83839 10.6076 1.21218 9.24172 1.41873C8.59237 0.575895 7.5889 0.0666504 6.50422 0.0666504ZM6.50422 1.13332C7.12082 1.13332 7.69906 1.37579 8.13651 1.78748C8.10311 1.80534 8.06851 1.81945 8.03547 1.83853L5.66776 3.20623C5.42136 3.3481 5.26883 3.61102 5.26776 3.89582L5.25318 7.07811L4.11464 6.41353V3.5229C4.11464 2.20557 5.18689 1.13332 6.50422 1.13332ZM9.92922 2.44894C10.6947 2.5034 11.4217 2.92448 11.8334 3.63748C12.1416 4.1713 12.2211 4.79348 12.0834 5.37811C12.0508 5.35785 12.021 5.33492 11.9876 5.31561L9.6188 3.9479C9.3724 3.80603 9.06886 3.80553 8.82193 3.94686L6.05943 5.52603L6.06568 4.20832L8.5688 2.76248C8.9966 2.51548 9.46994 2.41627 9.92922 2.44894ZM3.05318 3.40936C3.05194 3.44732 3.04797 3.48465 3.04797 3.5229V6.25728C3.04797 6.54207 3.19898 6.80547 3.44485 6.94894L6.1938 8.55207L5.05005 9.20519L2.54589 7.7604C1.40509 7.10173 1.01326 5.63662 1.67193 4.49582C1.98001 3.96231 2.47846 3.58254 3.05318 3.40936ZM8.95005 4.79478L11.4542 6.23957C12.595 6.89823 12.9868 8.36335 12.3282 9.50415C12.0201 10.0377 11.5216 10.4174 10.9469 10.5906C10.9482 10.5526 10.9521 10.5153 10.9521 10.4771V7.74269C10.9521 7.45789 10.8011 7.19449 10.5553 7.05102L7.8063 5.4479L8.95005 4.79478ZM7.00526 5.90519L7.95005 6.45623L7.94485 7.55207L6.99485 8.09477L6.05005 7.54269L6.05526 6.4479L7.00526 5.90519ZM8.74693 6.92186L9.88547 7.58644V10.4771C9.88547 11.7944 8.81322 12.8666 7.49589 12.8666C6.87928 12.8666 6.30105 12.6242 5.8636 12.2125C5.897 12.1946 5.9316 12.1805 5.96464 12.1614L8.33235 10.7937C8.57875 10.6519 8.73128 10.3889 8.73235 10.1041L8.74693 6.92186ZM7.94068 8.47394L7.93443 9.79165L5.4313 11.2375C4.2905 11.8961 2.82539 11.5033 2.16672 10.3625C1.85846 9.82867 1.77901 9.20648 1.91672 8.62186C1.94928 8.64212 1.9791 8.66505 2.01255 8.68436L4.3813 10.0521C4.6277 10.1939 4.93125 10.1944 5.17818 10.0531L7.94068 8.47394Z" fill="white"/>
</svg>

