<svg width="18" height="20" viewBox="0 0 18 20" fill="none" xmlns="http://www.w3.org/2000/svg">
<path d="M6.99984 7.91659V15.4166M11.1665 7.91659V15.4166M6.1665 4.16659H1.1665V4.37492L1.3665 5.24992C2.34118 9.51401 2.83316 13.8742 2.83317 18.2483V19.1666H15.3332V18.2483C15.3332 13.8741 15.8248 9.51492 16.7998 5.24992L16.9998 4.37492V4.16659H11.9998M6.1665 4.16659V3.74992C6.1665 3.3669 6.24195 2.98763 6.38852 2.63376C6.5351 2.27989 6.74994 1.95836 7.02078 1.68752C7.29161 1.41669 7.61314 1.20185 7.96701 1.05527C8.32088 0.908694 8.70015 0.833252 9.08317 0.833252C9.46619 0.833252 9.84546 0.908694 10.1993 1.05527C10.5532 1.20185 10.8747 1.41669 11.1456 1.68752C11.4164 1.95836 11.6312 2.27989 11.7778 2.63376C11.9244 2.98763 11.9998 3.3669 11.9998 3.74992V4.16659M6.1665 4.16659H11.9998" stroke="#A69191"/>
</svg>

