<svg
    width="18"
    height="18"
    viewBox="0 0 18 18"
    fill="none"
    xmlns="http://www.w3.org/2000/svg"
    className="mt-1"
>
    <path
        d="M0 16H16V18H0V16ZM16 5V2H14V5H16ZM16 0C16.6 0 17 0.2 17.4 0.6C17.8 1 18 1.5 18 2V5C18 5.6 17.8 6 17.4 6.4C17 6.8 16.6 7 16 7H14V10C14 11.1 13.6 12 12.8 12.8C12 13.6 11.1 14 10 14H4C2.9 14 2 13.6 1.2 12.8C0.4 12 0 11.1 0 10V0H5V2.4L3.2 3.8C3.1 3.9 3 4.1 3 4.2V8.5C3 8.8 3.2 9 3.5 9H7.5C7.8 9 8 8.8 8 8.5V4.2C8 4 7.9 3.9 7.8 3.8L6 2.4V0H16Z"
        fill="#D9D9D9"
    />
</svg>

