<svg
    width="24"
    height="24"
    viewBox="0 0 30 31"
    fill="none"
    xmlns="http://www.w3.org/2000/svg"
>
    <path
        d="M15 9.3C16.6356 9.3 18.2041 9.95321 19.3607 11.1159C20.5172 12.2787 21.1669 13.8557 21.1669 15.5C21.1669 17.1443 20.5172 18.7213 19.3607 19.8841C18.2041 21.0468 16.6356 21.7 15 21.7C13.3644 21.7 11.7959 21.0468 10.6393 19.8841C9.48281 18.7213 8.83308 17.1443 8.83308 15.5C8.83308 13.8557 9.48281 12.2787 10.6393 11.1159C11.7959 9.95321 13.3644 9.3 15 9.3ZM15 12.4C14.1822 12.4 13.3979 12.7266 12.8197 13.308C12.2414 13.8893 11.9165 14.6778 11.9165 15.5C11.9165 16.3222 12.2414 17.1107 12.8197 17.692C13.3979 18.2734 14.1822 18.6 15 18.6C15.8178 18.6 16.6021 18.2734 17.1803 17.692C17.7586 17.1107 18.0835 16.3222 18.0835 15.5C18.0835 14.6778 17.7586 13.8893 17.1803 13.308C16.6021 12.7266 15.8178 12.4 15 12.4ZM11.9165 31C11.5311 31 11.2073 30.721 11.1457 30.349L10.5752 26.2415C9.60395 25.854 8.77141 25.327 7.96971 24.707L4.13081 26.2725C3.79162 26.3965 3.37536 26.2725 3.19035 25.9315L0.106891 20.5685C-0.0935343 20.2275 -0.00103034 19.809 0.291898 19.5765L3.54495 17.0035L3.43703 15.5L3.54495 13.95L0.291898 11.4235C-0.00103034 11.191 -0.0935343 10.7725 0.106891 10.4315L3.19035 5.0685C3.37536 4.7275 3.79162 4.588 4.13081 4.7275L7.96971 6.2775C8.77141 5.673 9.60395 5.146 10.5752 4.7585L11.1457 0.651C11.2073 0.279 11.5311 0 11.9165 0H18.0835C18.4689 0 18.7927 0.279 18.8543 0.651L19.4248 4.7585C20.3961 5.146 21.2286 5.673 22.0303 6.2775L25.8692 4.7275C26.2084 4.588 26.6246 4.7275 26.8096 5.0685L29.8931 10.4315C30.0935 10.7725 30.001 11.191 29.7081 11.4235L26.4551 13.95L26.563 15.5L26.4551 17.05L29.7081 19.5765C30.001 19.809 30.0935 20.2275 29.8931 20.5685L26.8096 25.9315C26.6246 26.2725 26.2084 26.412 25.8692 26.2725L22.0303 24.7225C21.2286 25.327 20.3961 25.854 19.4248 26.2415L18.8543 30.349C18.7927 30.721 18.4689 31 18.0835 31H11.9165ZM13.8437 3.1L13.2733 7.1455C11.4232 7.533 9.78895 8.525 8.60182 9.9045L4.88625 8.2925L3.72996 10.3075L6.98301 12.71C6.36631 14.5235 6.36631 16.492 6.98301 18.29L3.71454 20.708L4.87084 22.723L8.61724 21.111C9.80437 22.475 11.4232 23.467 13.2578 23.839L13.8283 27.9H16.1717L16.7422 23.8545C18.5768 23.467 20.1956 22.475 21.3828 21.111L25.1292 22.723L26.2855 20.708L23.017 18.3055C23.6337 16.492 23.6337 14.5235 23.017 12.71L26.27 10.3075L25.1137 8.2925L21.3982 9.9045C20.211 8.525 18.5768 7.533 16.7267 7.161L16.1563 3.1H13.8437Z"
        fill="white"
    />
</svg>

