<svg
  width="9"
  height="17"
  viewBox="0 0 9 17"
  fill="none"
  xmlns="http://www.w3.org/2000/svg"
>
  <path
      d="M7.875 4V12.625C7.875 13.4206 7.55893 14.1837 6.99632 14.7463C6.43371 15.3089 5.67065 15.625 4.875 15.625C4.07935 15.625 3.31629 15.3089 2.75368 14.7463C2.19107 14.1837 1.875 13.4206 1.875 12.625V3.25C1.875 2.75272 2.07254 2.27581 2.42417 1.92417C2.77581 1.57254 3.25272 1.375 3.75 1.375C4.24728 1.375 4.72419 1.57254 5.07583 1.92417C5.42746 2.27581 5.625 2.75272 5.625 3.25V11.125C5.625 11.3239 5.54598 11.5147 5.40533 11.6553C5.26468 11.796 5.07391 11.875 4.875 11.875C4.67609 11.875 4.48532 11.796 4.34467 11.6553C4.20402 11.5147 4.125 11.3239 4.125 11.125V4H3V11.125C3 11.6223 3.19754 12.0992 3.54917 12.4508C3.90081 12.8025 4.37772 13 4.875 13C5.37228 13 5.84919 12.8025 6.20083 12.4508C6.55246 12.0992 6.75 11.6223 6.75 11.125V3.25C6.75 2.45435 6.43393 1.69129 5.87132 1.12868C5.30871 0.566071 4.54565 0.25 3.75 0.25C2.95435 0.25 2.19129 0.566071 1.62868 1.12868C1.06607 1.69129 0.75 2.45435 0.75 3.25V12.625C0.75 13.719 1.1846 14.7682 1.95818 15.5418C2.73177 16.3154 3.78098 16.75 4.875 16.75C5.96902 16.75 7.01823 16.3154 7.79182 15.5418C8.5654 14.7682 9 13.719 9 12.625V4H7.875Z"
      fill="white"
  />
</svg>

