<svg width="18" height="18" viewBox="0 0 12 12" fill="none" xmlns="http://www.w3.org/2000/svg">
<path fill-rule="evenodd" clip-rule="evenodd" d="M6.53336 0.933358C6.53336 0.638808 6.29457 0.400024 6.00002 0.400024C5.70547 0.400024 5.46669 0.638808 5.46669 0.933358V5.46669H0.933358C0.638808 5.46669 0.400024 5.70547 0.400024 6.00002C0.400024 6.29457 0.638808 6.53336 0.933358 6.53336H5.46669V11.0667C5.46669 11.3612 5.70547 11.6 6.00002 11.6C6.29457 11.6 6.53336 11.3612 6.53336 11.0667V6.53336H11.0667C11.3612 6.53336 11.6 6.29457 11.6 6.00002C11.6 5.70547 11.3612 5.46669 11.0667 5.46669H6.53336V0.933358Z" fill="white"/>
</svg>

