<svg width="18" height="18" viewBox="0 0 18 18" fill="none" xmlns="http://www.w3.org/2000/svg">
<path d="M16.9 18L10.325 11.425C9.825 11.8583 9.242 12.1959 8.576 12.4375C7.91 12.6791 7.20135 12.8 6.45 12.8C4.64735 12.8 3.12165 12.175 1.873 10.925C0.624335 9.675 0 8.16665 0 6.4C0 4.63335 0.625 3.125 1.875 1.875C3.125 0.625 4.6375 0 6.4125 0C8.1875 0 9.69585 0.625 10.9375 1.875C12.1791 3.125 12.8 4.6346 12.8 6.40375C12.8 7.1179 12.6833 7.80835 12.45 8.475C12.2167 9.14165 11.8666 9.76665 11.4 10.35L18 16.9L16.9 18ZM6.425 11.3C7.77915 11.3 8.93025 10.8208 9.87825 9.8625C10.8261 8.90415 11.3 7.75 11.3 6.4C11.3 5.05 10.8261 3.89585 9.87825 2.9375C8.93025 1.97917 7.77915 1.5 6.425 1.5C5.057 1.5 3.89415 1.97917 2.9365 2.9375C1.97884 3.89585 1.5 5.05 1.5 6.4C1.5 7.75 1.97884 8.90415 2.9365 9.8625C3.89415 10.8208 5.057 11.3 6.425 11.3Z" fill="white"/>
</svg>

